<svg width="64" height="66" viewBox="0 0 64 66" fill="none" xmlns="http://www.w3.org/2000/svg">
<g id="briefcase-svgrepo-com2 1">
<path id="Vector" d="M52.6998 56.5061H11.2998C10.4561 56.5061 9.76855 55.7971 9.76855 54.927V32.3362H54.2248V54.9206C54.2311 55.7971 53.5436 56.5061 52.6998 56.5061Z" fill="#68A240"/>
<path id="Vector_2" d="M52.6246 56.8734H11.3746C10.2934 56.8734 9.41211 55.9646 9.41211 54.8496V31.9688H54.5934V54.8496C54.5871 55.9646 53.7059 56.8734 52.6246 56.8734ZM10.1309 32.71V54.8496C10.1309 55.5586 10.6871 56.1322 11.3746 56.1322H52.6246C53.3121 56.1322 53.8684 55.5586 53.8684 54.8496V32.71H10.1309Z" fill="#333336"/>
<path id="Vector_3" d="M30.3561 53.8763H12.9998C12.6123 53.8763 12.2998 53.5541 12.2998 53.1544V33.6316H31.0623V53.148C31.0623 53.5476 30.7498 53.8763 30.3561 53.8763Z" fill="#68A240"/>
<path id="Vector_4" d="M30.325 54.2437H13.0312C12.425 54.2437 11.9375 53.7346 11.9375 53.1158V33.2578H31.425V53.1158C31.425 53.741 30.9313 54.2437 30.325 54.2437ZM12.6562 33.999V53.1158C12.6562 53.3285 12.825 53.5025 13.0312 53.5025H30.325C30.5312 53.5025 30.7 53.3285 30.7 53.1158V33.999H12.6562Z" fill="#333336"/>
<path id="Vector_5" d="M50.8564 53.8763H33.4939C33.1064 53.8763 32.7939 53.5541 32.7939 53.1544V33.6316H51.5627V53.148C51.5564 53.5476 51.2439 53.8763 50.8564 53.8763Z" fill="#68A240"/>
<path id="Vector_6" d="M50.825 54.2437H33.5312C32.925 54.2437 32.4375 53.7346 32.4375 53.1158V33.2578H51.925V53.1158C51.9187 53.741 51.425 54.2437 50.825 54.2437ZM33.1562 33.999V53.1158C33.1562 53.3285 33.325 53.5025 33.5312 53.5025H50.825C51.0312 53.5025 51.2 53.3285 51.2 53.1158V33.999H33.1562Z" fill="#333336"/>
<path id="Vector_7" d="M50.3873 37.9951H13.6123C11.4873 37.9951 9.76855 36.2226 9.76855 34.0312V22.333C9.76855 22.0236 10.0123 21.7722 10.3123 21.7722H53.6748C53.9748 21.7722 54.2186 22.0236 54.2186 22.333V34.0312C54.2311 36.2226 52.5061 37.9951 50.3873 37.9951Z" fill="#FFD632"/>
<path id="Vector_8" d="M50.2059 38.3689H13.7934C11.3746 38.3689 9.41211 36.3387 9.41211 33.8508V22.3588C9.41211 21.8303 9.83086 21.3984 10.3434 21.3984H53.6559C54.1684 21.3984 54.5871 21.8303 54.5871 22.3588V33.8443C54.5871 36.3387 52.6246 38.3689 50.2059 38.3689ZM10.3434 22.1396C10.2246 22.1396 10.1309 22.2363 10.1309 22.3588V33.8443C10.1309 35.9262 11.7746 37.6213 13.7934 37.6213H50.2059C52.2246 37.6213 53.8684 35.9262 53.8684 33.8443V22.3588C53.8684 22.2363 53.7746 22.1396 53.6559 22.1396H10.3434Z" fill="#333336"/>
<path id="Vector_9" d="M24.8312 43.5059H18.5249C18.4749 43.5059 18.4312 43.4607 18.4312 43.4092V34.9658C18.4312 34.9143 18.4749 34.8691 18.5249 34.8691H24.8312C24.8812 34.8691 24.9249 34.9143 24.9249 34.9658V43.4092C24.9249 43.4607 24.8874 43.5059 24.8312 43.5059Z" fill="#D5D9CF"/>
<path id="Vector_10" d="M24.8314 43.8732H18.5314C18.2814 43.8732 18.0752 43.6605 18.0752 43.4027V34.9722C18.0752 34.7144 18.2814 34.5017 18.5314 34.5017H24.8314C25.0814 34.5017 25.2877 34.7144 25.2877 34.9722V43.4027C25.2877 43.6669 25.0814 43.8732 24.8314 43.8732ZM18.7939 43.132H24.5689V35.2429H18.7939V43.132Z" fill="#333336"/>
<path id="Vector_11" d="M25.1564 39.0908H18.2002C17.8877 39.0908 17.6377 38.833 17.6377 38.5107V37.8855C17.6377 37.5632 17.8877 37.3054 18.2002 37.3054H25.1564C25.4689 37.3054 25.7189 37.5632 25.7189 37.8855V38.5107C25.7189 38.8265 25.4689 39.0908 25.1564 39.0908Z" fill="#D8A128"/>
<path id="Vector_12" d="M25.1312 39.4583H18.2249C17.6999 39.4583 17.2749 39.02 17.2749 38.4786V37.905C17.2749 37.3636 17.6999 36.9253 18.2249 36.9253H25.1312C25.6562 36.9253 26.0812 37.3636 26.0812 37.905V38.4786C26.0812 39.02 25.6562 39.4583 25.1312 39.4583ZM18.2249 37.6729C18.0999 37.6729 17.9937 37.7761 17.9937 37.9114V38.4851C17.9937 38.614 18.0937 38.7235 18.2249 38.7235H25.1312C25.2562 38.7235 25.3624 38.6204 25.3624 38.4851V37.9114C25.3624 37.7825 25.2624 37.6729 25.1312 37.6729H18.2249ZM21.6812 42.1524C21.4812 42.1524 21.3187 41.9849 21.3187 41.7786V40.7731C21.3187 40.5669 21.4812 40.3993 21.6812 40.3993C21.8812 40.3993 22.0437 40.5669 22.0437 40.7731V41.7786C22.0374 41.9849 21.8749 42.1524 21.6812 42.1524Z" fill="#333336"/>
<path id="Vector_13" d="M45.2311 43.5059H38.9248C38.8748 43.5059 38.8311 43.4607 38.8311 43.4092V34.9658C38.8311 34.9143 38.8748 34.8691 38.9248 34.8691H45.2311C45.2811 34.8691 45.3248 34.9143 45.3248 34.9658V43.4092C45.3248 43.4607 45.2873 43.5059 45.2311 43.5059Z" fill="#D5D9CF"/>
<path id="Vector_14" d="M45.2313 43.8732H38.9314C38.6814 43.8732 38.4751 43.6605 38.4751 43.4027V34.9722C38.4751 34.7144 38.6814 34.5017 38.9314 34.5017H45.2313C45.4813 34.5017 45.6876 34.7144 45.6876 34.9722V43.4027C45.6876 43.6669 45.4813 43.8732 45.2313 43.8732ZM39.1938 43.132H44.9688V35.2429H39.1938V43.132Z" fill="#333336"/>
<path id="Vector_15" d="M45.5626 39.0908H38.6001C38.2876 39.0908 38.0376 38.833 38.0376 38.5107V37.8855C38.0376 37.5632 38.2876 37.3054 38.6001 37.3054H45.5626C45.8751 37.3054 46.1251 37.5632 46.1251 37.8855V38.5107C46.1251 38.8265 45.8688 39.0908 45.5626 39.0908Z" fill="#D8A128"/>
<path id="Vector_16" d="M45.5311 39.4583H38.6248C38.0998 39.4583 37.6748 39.02 37.6748 38.4786V37.905C37.6748 37.3636 38.0998 36.9253 38.6248 36.9253H45.5311C46.0561 36.9253 46.4811 37.3636 46.4811 37.905V38.4786C46.4811 39.02 46.0561 39.4583 45.5311 39.4583ZM38.6248 37.6729C38.4998 37.6729 38.3936 37.7761 38.3936 37.9114V38.4851C38.3936 38.614 38.4936 38.7235 38.6248 38.7235H45.5311C45.6561 38.7235 45.7623 38.6204 45.7623 38.4851V37.9114C45.7623 37.7825 45.6623 37.6729 45.5311 37.6729H38.6248Z" fill="#333336"/>
<path id="Vector_17" d="M42.0812 42.1523C41.8812 42.1523 41.7188 41.9847 41.7188 41.7785V40.773C41.7188 40.5667 41.8812 40.3992 42.0812 40.3992C42.2812 40.3992 42.4437 40.5667 42.4437 40.773V41.7785C42.4375 41.9847 42.2812 42.1523 42.0812 42.1523Z" fill="#333336"/>
<path id="Vector_18" d="M41.5187 17.6085C42.1999 17.0994 42.3937 16.1455 41.9687 15.3978C40.5999 12.9873 37.2187 8.20483 31.8749 8.20483C26.0874 8.20483 22.9124 13.0195 21.6874 15.4236C21.3124 16.1648 21.5249 17.08 22.1812 17.5699L22.1937 17.5763C22.9937 18.1757 24.1187 17.905 24.5937 17.0091C25.7749 14.7791 28.2312 11.2019 31.8749 11.2019C35.4124 11.2019 37.9374 14.8371 39.1499 17.0671C39.6249 17.9437 40.7312 18.1951 41.5187 17.6085Z" fill="#FFD632"/>
<path id="Vector_19" d="M40.5686 18.2981C40.4248 18.2981 40.2811 18.2853 40.1436 18.253C39.5936 18.1306 39.1186 17.7632 38.8373 17.254C37.6811 15.1335 35.2436 11.5757 31.8748 11.5757C28.3936 11.5757 26.0123 15.0948 24.9061 17.1896C24.6311 17.7116 24.1498 18.0854 23.5873 18.2144C23.0311 18.3433 22.4436 18.2208 21.9811 17.8792L21.9686 17.8728C21.1686 17.2798 20.9123 16.1519 21.3686 15.2495C22.0123 13.9862 23.1311 12.1622 24.8311 10.6347C26.8936 8.77842 29.2623 7.8374 31.8748 7.8374C34.2936 7.8374 36.5686 8.77197 38.6498 10.6218C40.3623 12.1429 41.5686 13.9604 42.2811 15.2173C42.7998 16.1325 42.5623 17.2927 41.7311 17.9114C41.3873 18.1628 40.9811 18.2981 40.5686 18.2981ZM31.8748 10.8345C35.6123 10.8345 38.2311 14.6308 39.4623 16.8866C39.6373 17.2089 39.9436 17.4409 40.2936 17.5247C40.6436 17.602 41.0123 17.5247 41.3061 17.3056C41.8373 16.9124 41.9873 16.1712 41.6561 15.5847C40.9686 14.3794 39.8123 12.6327 38.1748 11.1761C36.2311 9.44873 34.1123 8.57217 31.8686 8.57217C29.4373 8.57217 27.2248 9.44873 25.2998 11.189C23.6873 12.6392 22.6186 14.3858 21.9998 15.5911C21.7061 16.1647 21.8748 16.8866 22.3873 17.2669L22.3998 17.2733C22.6936 17.4925 23.0686 17.5698 23.4248 17.4925C23.7811 17.4087 24.0936 17.1702 24.2686 16.8351C25.4623 14.5921 28.0186 10.8345 31.8748 10.8345Z" fill="#333336"/>
<path id="Vector_20" d="M23.5063 15.9585L21 20.1737L23.5063 15.9585Z" fill="#FFD632"/>
<path id="Vector_21" d="M20.6899 19.9765L23.1971 15.7632L23.8097 16.1508L21.3026 20.3642L20.6899 19.9765Z" fill="#333336"/>
<path id="Vector_22" d="M40.2627 15.9585L42.7689 20.1737L40.2627 15.9585Z" fill="#FFD632"/>
<path id="Vector_23" d="M39.9531 16.1513L40.5657 15.7637L43.0729 19.977L42.4603 20.3647L39.9531 16.1513Z" fill="#333336"/>
<path id="Vector_24" d="M21.4377 21.6691H17.2002C16.8189 21.6691 16.5127 21.3533 16.5127 20.9601V20.1931C16.5127 19.8 16.8189 19.4841 17.2002 19.4841H21.4377C21.8189 19.4841 22.1252 19.8 22.1252 20.1931V20.9601C22.1252 21.3533 21.8127 21.6691 21.4377 21.6691Z" fill="#D5D9CF"/>
<path id="Vector_25" d="M21.3998 22.043H17.2248C16.6311 22.043 16.1436 21.5402 16.1436 20.9279V20.2254C16.1436 19.6131 16.6311 19.1104 17.2248 19.1104H21.3998C21.9936 19.1104 22.4811 19.6131 22.4811 20.2254V20.9279C22.4811 21.5402 21.9998 22.043 21.3998 22.043ZM17.2311 19.858C17.0311 19.858 16.8686 20.0256 16.8686 20.2318V20.9344C16.8686 21.1406 17.0311 21.3082 17.2311 21.3082H21.4061C21.6061 21.3082 21.7686 21.1406 21.7686 20.9344V20.2318C21.7686 20.0256 21.6061 19.858 21.4061 19.858H17.2311Z" fill="#333336"/>
<path id="Vector_26" d="M46.5627 21.6691H42.3252C41.9439 21.6691 41.6377 21.3533 41.6377 20.9601V20.1931C41.6377 19.8 41.9439 19.4841 42.3252 19.4841H46.5627C46.9439 19.4841 47.2502 19.8 47.2502 20.1931V20.9601C47.2502 21.3533 46.9439 21.6691 46.5627 21.6691Z" fill="#D5D9CF"/>
<path id="Vector_27" d="M46.5248 22.043H42.3498C41.7561 22.043 41.2686 21.5402 41.2686 20.9279V20.2254C41.2686 19.6131 41.7561 19.1104 42.3498 19.1104H46.5248C47.1186 19.1104 47.6061 19.6131 47.6061 20.2254V20.9279C47.6061 21.5402 47.1248 22.043 46.5248 22.043ZM42.3561 19.858C42.1561 19.858 41.9936 20.0256 41.9936 20.2318V20.9344C41.9936 21.1406 42.1561 21.3082 42.3561 21.3082H46.5311C46.7311 21.3082 46.8936 21.1406 46.8936 20.9344V20.2318C46.8936 20.0256 46.7311 19.858 46.5311 19.858H42.3561Z" fill="#333336"/>
</g>
</svg>
