<svg width="86" height="83" viewBox="0 0 86 83" fill="none" xmlns="http://www.w3.org/2000/svg">
<g filter="url(#filter0_d_216_23)">
<path d="M41.2069 11.6339C41.9405 10.1474 44.0602 10.1474 44.7938 11.6339L52.4049 27.0557L69.4239 29.5287C71.0643 29.767 71.7193 31.783 70.5323 32.9401L58.2173 44.9442L61.1245 61.8944C61.4047 63.5282 59.6898 64.7741 58.2226 64.0027L43.0004 55.9999L27.7782 64.0027C26.3109 64.7741 24.5961 63.5282 24.8763 61.8944L27.7835 44.9442L15.4685 32.94C14.2814 31.783 14.9365 29.767 16.5769 29.5287L33.5958 27.0557L41.2069 11.6339Z" fill="#FFAE35"/>
<path d="M51.5082 27.4982L51.7409 27.9697L52.2611 28.0453L69.2801 30.5183C70.1003 30.6375 70.4278 31.6454 69.8343 32.224L57.5193 44.2281L57.1428 44.5951L57.2317 45.1133L60.1389 62.0634C60.279 62.8803 59.4215 63.5033 58.6879 63.1176L43.4657 55.1148L43.0004 54.8702L42.535 55.1148L27.3128 63.1176C26.5792 63.5033 25.7218 62.8803 25.8619 62.0634L28.7691 45.1133L28.858 44.5951L28.4815 44.2281L16.1665 32.224C15.573 31.6454 15.9005 30.6375 16.7207 30.5183L33.7396 28.0453L34.2599 27.9697L34.4926 27.4982L42.1036 12.0765C42.4705 11.3332 43.5303 11.3332 43.8971 12.0765L51.5082 27.4982Z" stroke="white" stroke-width="2"/>
</g>
<path d="M33.7383 43L37.1631 33.1357H39.5898L43.0215 43H40.8477L40.1162 40.6074H36.6367L35.9053 43H33.7383ZM38.3184 35.1045L37.1084 39.0625H39.6445L38.4414 35.1045H38.3184ZM43.9922 43L47.417 33.1357H49.8438L53.2754 43H51.1016L50.3701 40.6074H46.8906L46.1592 43H43.9922ZM48.5723 35.1045L47.3623 39.0625H49.8984L48.6953 35.1045H48.5723Z" fill="#232323"/>
<defs>
<filter id="filter0_d_216_23" x="0.862305" y="0.519043" width="84.2764" height="81.7178" filterUnits="userSpaceOnUse" color-interpolation-filters="sRGB">
<feFlood flood-opacity="0" result="BackgroundImageFix"/>
<feColorMatrix in="SourceAlpha" type="matrix" values="0 0 0 0 0 0 0 0 0 0 0 0 0 0 0 0 0 0 127 0" result="hardAlpha"/>
<feOffset dy="4"/>
<feGaussianBlur stdDeviation="7"/>
<feComposite in2="hardAlpha" operator="out"/>
<feColorMatrix type="matrix" values="0 0 0 0 0 0 0 0 0 0 0 0 0 0 0 0 0 0 0.08 0"/>
<feBlend mode="normal" in2="BackgroundImageFix" result="effect1_dropShadow_216_23"/>
<feBlend mode="normal" in="SourceGraphic" in2="effect1_dropShadow_216_23" result="shape"/>
</filter>
</defs>
</svg>
